<svg width="111" height="28" viewBox="0 0 111 28" fill="none" xmlns="http://www.w3.org/2000/svg">
<path d="M56.2434 19.2822C55.5287 24.3597 52.7185 27.2724 48.5393 27.2724C46.1096 27.2723 44.6866 25.1917 44.6242 25.0986L44.5041 24.9189L46.4406 22.748L46.6535 22.9775C46.6655 22.9895 47.7827 24.1863 49.1066 24.1865C51.2534 24.1865 52.6864 22.4064 53.1428 19.1767L53.3498 17.7861C52.2809 19.2125 50.6108 20.4961 48.5451 20.4961C46.7979 20.4959 45.6481 19.6105 45.3059 18.0078C45.1708 17.3738 45.1614 16.6291 45.2785 15.8007L46.426 7.67574H49.7853L49.7375 7.98144C49.7247 8.05564 48.9176 13.0579 48.6301 15.1045C48.342 17.1552 48.9956 17.4305 49.674 17.4306C51.6196 17.4306 53.7222 13.2257 54.2326 9.61034V9.60744L54.5051 7.67284H57.883L56.2434 19.2822ZM94.2238 7.65334C96.89 7.65334 98.2776 9.53404 98.0314 11.2744L98.0012 11.4931L95.1242 12.3603L95.1154 12.0224C95.0944 11.1971 94.623 10.7421 93.7883 10.7421C92.3382 10.7423 91.086 12.1626 90.8098 14.1152C90.5485 15.9543 91.2875 17.916 94.1398 17.916C95.9923 17.916 97.3165 16.9892 98.2082 15.9785C98.9107 16.4629 99.4303 17.1627 99.6945 17.997C98.4035 19.3906 96.3163 20.7929 93.1428 20.7929C89.1617 20.7928 86.8561 18.1937 87.4025 14.3271C87.9312 10.5863 90.9273 7.65334 94.2238 7.65334ZM18.8107 7.77834L22.0451 7.78714L21.6428 10.6338L18.385 10.6435L17.8928 14.1416C17.5625 16.48 18.0095 17.4345 19.4416 17.4345C20.1051 17.4345 20.7121 17.1535 21.2346 16.7588C21.5528 16.5195 21.8289 16.0648 22.048 15.6103C22.3303 15.0212 22.5227 14.3958 22.6428 13.7529C22.7238 13.3252 22.8827 12.6583 23.1799 11.9228C23.9904 9.92584 25.839 7.35794 29.9767 7.35644C33.5362 7.35764 35.7355 10.0637 35.2101 13.792C34.9639 15.5354 34.1661 17.1687 32.9621 18.3828C31.59 19.7673 29.7882 20.497 27.8156 20.497C25.843 20.497 24.2458 19.6919 23.3391 18.2714C22.2612 19.3869 20.6427 20.497 18.466 20.497C15.6407 20.497 14.0316 18.4268 14.467 15.3466L16.0695 3.98047H19.3459L18.8107 7.77834ZM70.7141 15.4257C70.5251 16.7559 70.8283 17.4314 71.6115 17.4316C71.8787 17.4316 72.1377 17.3809 72.3869 17.2793C72.7681 17.1266 73.0864 16.6778 73.3176 16.2353C73.5697 15.751 73.7374 15.2126 73.8244 14.6894C73.9115 14.1661 74.1522 13.0871 74.4523 12.3515C75.3561 10.1237 77.2175 7.35754 81.1896 7.35744C84.8076 7.35744 86.9575 10.0041 86.423 13.7929C86.1768 15.5362 85.3779 17.1688 84.174 18.3828C82.8019 19.7673 81.0241 20.497 79.0275 20.497C77.2144 20.4969 75.7161 19.8184 74.7824 18.6015C73.6176 19.7497 72.4045 20.2548 70.8674 20.2548C68.6636 20.2548 67.796 18.6935 67.4777 17.7724C66.442 19.2077 64.5444 20.4968 62.4699 20.497C59.3203 20.497 57.5663 17.931 58.1037 14.1123C58.6472 10.2607 61.5632 7.35744 64.8898 7.35744C66.2408 7.35754 67.3966 7.73994 68.4113 8.52634L69.4348 1.27149H72.7111L70.7141 15.4257ZM8.73552 0.12012C11.8401 0.12012 13.7591 2.02772 13.3898 4.65332C13.2277 5.80162 12.5699 6.75574 12.0685 7.33884L9.85271 5.54102C9.94271 5.34374 10.018 5.11966 10.051 4.89551C10.2071 3.78918 9.53758 3.07732 8.34587 3.07715C7.15403 3.07715 6.13249 3.93229 5.95818 5.16113C5.76902 6.49786 6.90451 7.26094 8.79607 8.35544C11.186 9.72804 13.8941 11.2805 13.4348 14.5429C12.9482 17.9907 9.72944 20.4961 5.78435 20.4961C1.83927 20.4961 -0.418542 18.2 0.0646162 14.7822C0.274789 13.287 1.16403 12.0069 1.77653 11.2802L3.96208 13.0507C3.74295 13.4275 3.50513 13.9534 3.42107 14.5693C3.17787 16.2858 4.36714 17.4853 6.31267 17.4853C8.25815 17.4853 9.69923 16.3249 9.94255 14.5966C10.1647 13.0357 8.99411 12.1172 6.4572 10.7627C4.17233 9.52164 2.15773 8.15764 2.58708 5.10742C2.98959 2.26379 5.63122 0.12023 8.73552 0.12012ZM44.8449 10.5029H44.2355C42.4761 10.503 39.5699 12.522 38.7863 18.081L38.4855 20.2011H35.2101L36.9514 7.79104H40.2277L39.9426 9.88964V9.89254C41.1255 8.50224 42.8337 7.67684 44.635 7.67674H45.2443L44.8449 10.5029ZM29.548 10.2578C27.5694 10.2578 26.2329 12.1742 25.9777 13.9804C25.6745 16.1244 26.6535 17.6199 28.3527 17.6201C30.3673 17.6201 31.5443 15.67 31.8176 13.7382C32.1178 11.624 31.2264 10.2578 29.548 10.2578ZM80.757 10.2578C78.7788 10.258 77.443 12.1745 77.1877 13.9804C76.8844 16.1246 77.8633 17.6201 79.5627 17.6201C81.5742 17.6199 82.7514 15.67 83.0246 13.7382C83.3246 11.6243 82.4323 10.2578 80.757 10.2578ZM65.2502 10.4462C63.3346 10.4462 61.7755 12.0196 61.4572 14.2744C61.1962 16.134 61.989 17.4314 63.3879 17.4316C65.5946 17.4316 67.3063 14.047 67.6877 11.6338C67.1773 11.0298 66.2498 10.4464 65.2502 10.4462ZM102.667 11.9414C102.775 12.7964 103.342 13.4658 104.162 13.708L104.792 13.8935L104.101 14.0791C103.203 14.3213 102.426 14.9914 102.047 15.8466L101.756 16.5048L101.672 15.8466C101.564 14.9914 100.997 14.3213 100.177 14.0791L99.5461 13.8935L100.237 13.708C101.134 13.4658 101.912 12.7964 102.291 11.9414L102.583 11.2832L102.667 11.9414ZM108.233 7.00488C108.362 8.02744 109.038 8.82524 110.02 9.11524L110.957 9.39354L109.933 9.67184C108.861 9.96194 107.93 10.7605 107.477 11.7832L107.044 12.7578L106.921 11.7832C106.792 10.7606 106.117 9.96204 105.135 9.67184L104.198 9.39354L105.222 9.11524C106.294 8.82514 107.225 8.02734 107.678 7.00488L108.11 6.0293L108.233 7.00488ZM102.381 1.16309C102.598 2.89153 103.742 4.24295 105.399 4.7334L106.513 5.0625L105.293 5.3916C103.48 5.88207 101.907 7.23364 101.141 8.96194L100.625 10.1259L100.478 8.96194C100.262 7.23364 99.1174 5.882 97.4601 5.3916L96.3459 5.0625L97.5656 4.7334C99.3789 4.24284 100.953 2.89138 101.718 1.16309L102.234 0L102.381 1.16309Z" fill="#610CFF"/>
</svg>
