<svg width="294" height="50" viewBox="0 0 294 50" fill="none" xmlns="http://www.w3.org/2000/svg">
<path d="M271.488 48V15.36H279.36V19.712H279.872C280.427 18.688 281.152 17.792 282.048 17.024C282.987 16.2134 284.075 15.5734 285.312 15.104C286.55 14.6347 287.872 14.4 289.28 14.4C290.134 14.4 290.902 14.464 291.584 14.592C292.267 14.72 292.864 14.8907 293.376 15.104V23.488C292.48 23.1467 291.584 22.8694 290.688 22.656C289.835 22.4 288.918 22.272 287.936 22.272C286.272 22.272 284.822 22.6987 283.584 23.552C282.39 24.3627 281.472 25.4934 280.832 26.944C280.192 28.352 279.872 29.952 279.872 31.744V48H271.488Z" fill="#222222"/>
<path d="M249.774 49.024C246.361 49.024 243.332 48.2773 240.686 46.784C238.084 45.248 236.036 43.1787 234.542 40.576C233.092 37.9307 232.366 34.9653 232.366 31.68C232.366 28.3947 233.092 25.4507 234.542 22.848C236.036 20.2027 238.084 18.1333 240.686 16.64C243.332 15.104 246.361 14.336 249.774 14.336C253.188 14.336 256.196 15.104 258.798 16.64C261.401 18.176 263.428 20.2453 264.878 22.848C266.372 25.4507 267.118 28.3947 267.118 31.68C267.118 34.9653 266.372 37.9307 264.878 40.576C263.428 43.1787 261.401 45.248 258.798 46.784C256.196 48.2773 253.188 49.024 249.774 49.024ZM249.774 41.216C251.396 41.216 252.868 40.8533 254.19 40.128C255.556 39.36 256.644 38.272 257.454 36.864C258.308 35.4133 258.734 33.6853 258.734 31.68C258.734 29.6747 258.308 27.968 257.454 26.56C256.644 25.152 255.556 24.064 254.19 23.296C252.868 22.528 251.396 22.144 249.774 22.144C248.196 22.144 246.702 22.528 245.294 23.296C243.929 24.064 242.82 25.152 241.966 26.56C241.156 27.968 240.75 29.6747 240.75 31.68C240.75 33.6853 241.156 35.4133 241.966 36.864C242.82 38.272 243.929 39.36 245.294 40.128C246.702 40.8533 248.196 41.216 249.774 41.216Z" fill="#222222"/>
<path d="M208.709 22.528V15.36H214.725V22.528H208.709ZM225.221 48.512C221.85 48.512 219.205 47.552 217.285 45.632C215.365 43.6693 214.405 40.9813 214.405 37.568V6.14398H222.789V36.032C222.789 37.6106 223.109 38.784 223.749 39.552C224.389 40.2773 225.434 40.64 226.885 40.64C227.568 40.64 228.208 40.5547 228.805 40.384C229.402 40.1707 230.149 39.7867 231.045 39.232V47.424C230.106 47.7653 229.146 48.0213 228.165 48.192C227.226 48.4053 226.245 48.512 225.221 48.512ZM222.469 22.528V15.36H230.789V22.528H222.469Z" fill="#222222"/>
<path d="M175.811 48V15.36H183.683V19.456H184.195C185.176 17.8773 186.563 16.64 188.355 15.744C190.147 14.8053 192.088 14.336 194.179 14.336C198.189 14.336 201.197 15.552 203.203 17.984C205.208 20.416 206.211 23.6587 206.211 27.712V48H197.827V28.736C197.827 26.6027 197.272 24.9813 196.163 23.872C195.096 22.72 193.624 22.144 191.747 22.144C190.211 22.144 188.867 22.5707 187.715 23.424C186.605 24.2347 185.731 25.344 185.091 26.752C184.493 28.1173 184.195 29.6533 184.195 31.36V48H175.811Z" fill="#222222"/>
<path d="M161.293 48V15.36H169.677V48H161.293ZM165.517 11.776C164.024 11.776 162.744 11.2427 161.677 10.176C160.611 9.10935 160.077 7.82935 160.077 6.33602C160.077 4.84269 160.611 3.58402 161.677 2.56002C162.744 1.49335 164.024 0.960022 165.517 0.960022C167.011 0.960022 168.269 1.49335 169.293 2.56002C170.36 3.58402 170.893 4.84269 170.893 6.33602C170.893 7.82935 170.36 9.10935 169.293 10.176C168.269 11.2427 167.011 11.776 165.517 11.776Z" fill="#222222"/>
<path d="M137.449 49.024C135.145 49.024 133.097 48.576 131.305 47.68C129.555 46.7413 128.169 45.44 127.145 43.776C126.121 42.112 125.609 40.192 125.609 38.016C125.609 35.7547 126.185 33.8133 127.337 32.192C128.531 30.5707 130.11 29.312 132.073 28.416C134.078 27.52 136.297 27.072 138.729 27.072C140.051 27.072 141.246 27.1573 142.313 27.328C143.422 27.456 144.403 27.6267 145.257 27.84C146.11 28.0533 146.814 28.288 147.369 28.544V27.136C147.369 25.3867 146.707 23.9573 145.385 22.848C144.062 21.696 142.249 21.12 139.945 21.12C138.409 21.12 136.915 21.4827 135.465 22.208C134.057 22.8907 132.883 23.808 131.945 24.96L126.569 20.736C127.635 19.3707 128.873 18.2187 130.281 17.28C131.689 16.2987 133.246 15.5733 134.953 15.104C136.659 14.592 138.451 14.336 140.329 14.336C145.321 14.336 149.118 15.488 151.721 17.792C154.323 20.096 155.625 23.4667 155.625 27.904V48H147.369V44.672H146.857C146.259 45.44 145.513 46.1653 144.617 46.848C143.721 47.488 142.675 48 141.481 48.384C140.286 48.8107 138.942 49.024 137.449 49.024ZM139.433 42.496C141.139 42.496 142.569 42.1333 143.721 41.408C144.915 40.64 145.811 39.6587 146.409 38.464C147.049 37.2693 147.369 36.0107 147.369 34.688C146.43 34.2187 145.363 33.856 144.169 33.6C142.974 33.3013 141.758 33.152 140.521 33.152C138.046 33.152 136.339 33.6213 135.401 34.56C134.462 35.4987 133.993 36.6507 133.993 38.016C133.993 39.296 134.441 40.3627 135.337 41.216C136.275 42.0693 137.641 42.496 139.433 42.496Z" fill="#222222"/>
<path d="M72.9103 48V2.17603H84.0463L96.2063 34.368H96.7183L108.878 2.17603H120.078V48H111.502V25.408L112.014 17.792H111.502L99.8543 48H93.1343L81.4223 17.792H80.9103L81.4223 25.408V48H72.9103Z" fill="#222222"/>
<path d="M23.593 47.1436L22.9419 46.768C19.8883 45.0046 18.8416 41.0997 20.605 38.0456L40.7269 3.19328C42.4904 0.13969 46.3952 -0.906588 49.4488 0.856388L50.0999 1.23197C53.154 2.99543 54.2002 6.90033 52.4368 9.95392L32.3149 44.8067C30.5519 47.8603 26.6466 48.9066 23.593 47.1436Z" fill="#1783CB"/>
<path d="M3.84435 47.1436L3.19329 46.768C0.139697 45.0046 -0.906592 41.0997 0.856384 38.0456L20.9787 3.19328C22.7417 0.13969 26.6466 -0.906588 29.7007 0.856388L30.3513 1.23197C33.4053 2.99543 34.4516 6.90033 32.6887 9.95392L12.5663 44.8067C10.8033 47.8603 6.89842 48.9066 3.84435 47.1436Z" fill="#1783CB"/>
<path d="M43.3412 47.1436L42.6907 46.768C39.6366 45.0046 38.5903 41.0997 40.3538 38.0456L47.8296 25.0968C49.5931 22.0428 53.498 20.9965 56.5516 22.7595L57.2026 23.1355C60.2567 24.8985 61.303 28.8039 59.5396 31.8575L52.0637 44.8067C50.3002 47.8603 46.3953 48.9066 43.3412 47.1436Z" fill="#1783CB"/>
</svg>
