<svg xmlns="http://www.w3.org/2000/svg" width="990" height="526" viewBox="0 0 990 526" fill="none"><path d="M441.174 308.119C441.356 331.531 437.349 374.182 437.713 395.598C437.349 405.399 441.174 422.459 447.003 429.356C453.56 437.16 465.583 443.33 478.151 439.338C508.935 428.993 515.675 401.406 520.228 391.968C524.418 399.954 541.176 411.206 551.741 407.576C577.971 398.139 585.621 369.1 594.547 345.506C594 360.389 591.997 392.513 612.398 392.513C619.866 392.513 631.706 384.164 636.806 379.082C649.192 366.741 665.404 325.724 668.136 306.486C671.233 315.197 658.847 361.659 690.541 361.659C695.641 361.659 706.571 361.659 706.206 355.488C706.024 353.129 698.556 350.044 698.556 341.876C698.556 332.802 700.742 321.368 701.835 313.019C704.931 288.881 713.492 270.006 718.775 248.227C721.689 236.067 726.607 234.615 729.157 249.134C730.068 254.397 730.432 259.842 730.979 263.654C732.254 272.547 732.072 285.433 732.254 293.6L732.618 322.094C732.8 334.98 743.548 345.688 755.387 345.506C765.042 345.143 767.774 345.506 763.038 335.524C759.941 328.991 760.123 320.097 761.034 312.838C763.402 288.881 767.409 251.131 777.61 229.17C788.539 205.576 795.097 226.811 794.732 242.782C794.55 256.938 792.729 272.728 792.547 274.725C792 290.696 789.45 313.564 798.922 326.813C805.297 335.161 813.312 337.702 823.513 333.891C835.535 329.535 854.661 305.215 857.393 293.418H858.486C852.657 328.265 858.486 379.082 880.526 408.847C890.727 422.64 902.567 431.896 905.117 418.648C905.117 416.107 899.652 413.566 897.649 409.936C890.362 396.324 892.366 368.011 892.548 351.496L896.191 305.034C899.288 306.123 904.753 309.389 912.767 309.389C960.673 309.389 990 236.067 990 194.142C990 160.929 973.242 138.606 940.819 156.573C924.972 165.285 904.388 196.865 901.11 210.839C900.563 180.167 894.37 130.257 866.318 111.563C839.542 93.5958 791.454 110.656 788.721 135.883C788.721 138.061 790.725 139.876 793.093 139.876C797.1 139.876 798.193 119.731 824.241 123.542C880.162 131.528 865.225 244.778 853.203 284.707C850.107 295.052 839.178 311.749 830.616 317.375C818.594 308.482 828.431 231.167 827.156 218.281C825.881 206.847 824.605 185.249 807.119 185.249C783.257 185.249 766.863 240.241 763.038 247.138L760.306 226.629C759.213 216.466 751.744 202.854 739.904 202.854C708.392 202.854 705.478 280.351 695.824 295.415C694.184 276.176 698.374 249.316 688.173 233.163C685.076 228.081 677.973 223.725 671.233 223.725C663.947 223.725 657.571 226.811 653.018 229.715C651.196 230.804 647.553 233.526 644.639 236.43C639.72 241.149 641.906 243.508 647.371 242.238C649.739 241.693 652.289 241.149 655.568 241.149C661.579 241.149 665.404 255.123 665.404 260.931C665.404 283.799 656.114 336.795 641.178 360.389C637.535 366.196 629.702 376.178 628.063 362.748C625.695 343.328 641.36 288.155 611.123 288.155C605.658 288.155 594.364 292.148 589.446 295.415C587.625 296.504 585.439 297.955 588.171 299.226C593.454 301.767 595.457 303.4 594 313.564C592.543 323.909 587.261 344.599 582.889 353.855C579.974 360.207 570.32 385.616 563.398 385.616C556.477 385.616 552.287 378.356 550.284 372.912C542.087 350.407 539.719 262.383 575.238 262.383C578.517 262.383 580.339 268.554 580.339 271.821C580.339 278.536 576.331 280.714 576.331 281.984C576.331 288.699 601.286 282.166 608.937 273.999C614.401 268.191 616.587 261.113 609.301 254.579C584.346 232.255 539.354 261.476 523.507 293.418C521.139 297.955 518.407 304.126 516.221 309.208C512.578 317.92 508.388 337.339 508.388 349.318C508.388 356.577 509.663 369.282 511.667 376.541C515.128 388.157 498.552 427.722 482.523 427.722C474.508 427.722 474.144 421.007 472.504 415.381C465.583 389.972 473.779 329.898 476.33 303.219C476.512 301.041 476.512 300.496 476.876 300.315C487.987 295.233 518.771 281.077 521.139 256.212C521.321 250.768 512.031 258.935 509.663 260.568C498.734 268.191 486.53 266.013 477.969 270.006C476.876 260.387 477.969 241.149 473.597 234.07C463.579 217.736 439.717 213.925 428.606 222.818C426.238 228.081 427.33 226.448 432.613 228.626C439.17 231.167 440.992 250.223 440.992 256.031C440.992 258.39 442.085 277.628 442.267 277.991C418.951 283.436 400.736 302.856 394.725 325.724C393.632 329.535 397.64 328.991 398.55 326.813C398.733 326.45 398.915 325.905 399.643 324.998C406.201 316.105 426.602 307.575 441.174 308.119ZM899.834 297.23C896.374 296.322 896.191 293.055 896.92 290.696C897.649 274.725 899.106 250.768 903.66 233.707C907.303 219.914 922.786 179.623 940.454 179.623C950.473 179.623 952.294 201.765 952.294 211.747C952.294 225.177 949.744 239.152 945.919 249.316C944.826 252.22 943.551 254.942 942.822 257.483C938.269 273.999 919.871 302.13 899.834 297.23Z" fill="#08415C"></path><path d="M292.719 306.668C292.719 343.874 322.41 352.404 348.458 366.56C359.752 372.731 373.231 383.257 382.885 391.424C388.714 396.325 392.357 400.862 395.818 408.122C410.208 438.975 356.108 480.355 323.321 452.224C314.031 444.238 310.57 437.16 310.57 422.822C310.57 410.481 324.05 396.143 337.347 395.599C339.897 395.417 340.99 396.325 342.811 398.321C346.819 402.677 349.551 400.136 347.547 396.143C338.622 375.453 269.768 402.495 269.768 439.52C269.768 495.601 380.699 494.512 412.211 431.353C424.78 406.307 426.055 375.816 403.65 357.304C380.881 338.247 341.536 319.554 327.146 304.671C324.414 301.949 318.403 292.511 318.403 287.43C318.403 257.12 371.956 234.615 371.956 270.551V272.729C371.956 293.237 355.016 294.508 355.016 299.771C355.016 300.497 357.93 303.038 360.662 303.038C361.937 303.219 363.759 302.493 366.673 301.223C371.591 299.045 377.967 295.234 379.606 294.145C386.346 289.607 394.725 281.803 397.821 273.636C414.944 228.445 345.544 232.801 316.581 261.295C308.202 269.099 292.719 291.241 292.719 306.668ZM362.302 130.621C373.413 139.877 385.617 146.229 397.457 156.03C405.654 163.834 417.13 178.172 400.736 186.157C382.156 193.598 363.03 162.563 370.681 159.659C371.409 157.118 368.677 154.033 364.487 155.848C355.38 160.022 349.915 170.73 347.729 180.168C346.09 187.065 333.157 205.758 325.507 205.577C326.235 181.983 330.607 163.652 334.979 140.603C336.982 130.621 339.533 116.646 338.44 105.03C337.165 92.3259 331.882 87.0626 317.31 88.8775C314.031 89.2405 293.084 97.9521 288.712 100.312C286.526 101.4 287.073 102.671 288.53 103.215C291.444 104.304 294.541 102.671 297.82 105.756C300.005 107.753 300.734 111.201 300.37 115.375L294.177 206.121C293.812 217.555 295.816 225.904 309.295 225.904C326.964 225.904 340.99 204.669 348.64 194.506C376.145 236.793 435.527 188.698 425.144 145.866C421.501 131.165 410.39 122.272 399.461 114.468C389.625 107.39 372.502 99.2226 375.052 82.8883C376.874 70.1839 392.721 67.28 399.096 76.7176C401.282 79.9844 404.379 83.7958 404.379 86.8811C404.379 90.511 402.557 94.6853 405.654 96.8632C410.936 100.493 425.144 87.6071 427.694 80.5289C430.245 73.4507 426.419 64.7391 422.23 61.1093C391.446 33.8855 328.239 102.126 362.302 130.621ZM502.377 96.1372C495.82 106.664 488.898 109.931 475.236 111.201C474.508 86.1552 477.422 72.1803 485.801 47.4974C488.898 41.5082 494.909 35.156 501.466 36.6079C520.774 40.7822 508.57 84.8847 502.377 96.1372ZM458.843 58.9314C443.906 86.5181 430.973 123.724 447.549 153.489C459.571 175.086 482.522 180.168 506.384 170.367C536.804 157.844 598.554 98.8596 624.237 87.7886C629.155 85.6107 635.531 84.7032 641.177 85.6107C649.192 86.8811 655.75 91.7814 655.75 101.945C655.75 108.842 645.003 116.283 655.021 116.283C666.314 116.283 684.165 97.5891 684.894 86.6996C685.987 70.7284 669.047 64.1947 651.014 65.4651C619.865 67.643 593.818 89.6035 571.777 109.205C559.573 119.913 519.864 157.663 502.741 157.663C481.976 157.663 476.694 132.799 476.329 121.728C494.362 121.365 513.853 110.112 525.51 97.2262C583.617 33.1596 500.191 -17.4767 458.843 58.9314ZM559.573 442.061C529.518 454.765 487.805 481.263 469.225 508.487C468.679 509.394 465.946 513.931 464.671 517.743C461.939 526.273 469.043 527.725 473.961 523.006C494.544 503.768 504.199 491.608 550.465 477.451C607.479 460.028 680.704 449.502 701.652 444.601C753.383 433.53 789.45 414.837 812.219 384.891C815.68 380.172 819.505 375.453 816.226 373.094C812.765 369.645 806.754 373.275 800.379 378.175C796.918 380.716 793.639 383.62 790.178 386.524C767.409 405.762 728.611 410.844 700.559 415.2C649.192 423.367 583.799 431.716 559.573 442.061ZM541.722 230.441C545.183 222.274 553.38 218.826 561.212 215.559C608.208 195.958 678.154 202.128 725.514 170.549C739.175 161.293 753.201 151.311 762.491 134.795C765.223 130.076 759.759 127.898 755.751 133.162C754.476 134.976 751.198 138.243 741.726 144.596C728.793 153.307 709.849 155.667 699.102 157.844C688.355 160.022 657.207 163.471 650.285 164.197C633.345 166.012 603.836 172.908 590.357 178.716C582.342 182.164 572.87 187.065 566.313 191.783C553.198 201.402 539.9 215.74 536.257 232.075C534.982 237.701 536.986 238.245 538.625 236.612C539.9 235.523 540.993 232.256 541.722 230.441ZM293.084 6.84325C291.262 8.47668 290.716 10.4731 293.448 11.7435C299.641 14.6474 294.905 7.20624 304.741 10.8361C308.567 12.288 311.845 15.7363 312.392 19.7292C314.213 33.704 311.663 46.9529 307.838 60.3833C307.109 62.7427 305.834 64.3761 307.109 66.3726C308.749 69.0949 309.842 68.9134 311.481 66.3726C322.046 53.3051 330.789 45.864 340.99 28.4408C345.544 20.8181 348.458 11.562 340.261 5.39132C334.068 0.67253 325.142 -0.41642 316.581 0.128055C310.752 0.854022 298.002 2.12447 293.084 6.84325ZM188.892 77.2621C233.338 57.298 232.973 129.532 232.973 157.663C232.973 175.268 220.951 250.768 203.647 259.661C190.35 266.558 189.621 239.879 189.621 232.075C189.621 212.473 192.171 191.239 192.171 172.364C192.171 160.93 192.535 149.133 182.517 138.788C172.499 128.261 150.64 126.446 145.176 134.613C146.269 139.514 150.094 136.247 151.733 140.421C161.023 165.104 156.105 216.648 146.451 240.242C96.1766 362.567 111.295 179.805 113.117 153.126C115.849 64.3761 4.37166 70.0024 0 145.866V150.222C0.182153 153.126 0.728611 156.03 1.82153 158.933C5.64673 168.552 11.6578 177.99 24.9549 177.99C33.1518 177.99 39.8914 173.816 40.4379 164.923C40.62 162.382 40.0736 154.941 35.8841 154.941C34.4269 154.941 35.1555 156.574 30.4195 155.304C17.1224 151.674 11.8399 134.432 15.483 121.728C17.6688 114.468 22.9512 108.66 27.8694 104.304C39.1628 94.1408 60.4747 94.5038 68.1251 109.749C81.0579 135.521 72.8611 175.449 71.586 215.196C70.4931 248.59 79.0543 331.169 128.418 285.433C144.811 270.188 153.19 244.053 155.376 242.42C160.112 262.928 176.142 287.067 200.368 276.722C241.899 259.298 306.927 92.8704 246.817 58.7499C220.769 44.0491 192.535 66.7355 187.253 75.2657C185.249 78.351 186.342 78.5325 188.892 77.2621Z" fill="#08415C"></path></svg>