<svg width="240" height="64" viewBox="0 0 240 64" fill="none" xmlns="http://www.w3.org/2000/svg">
<path d="M109.3 11.6C107.5 11.6 105.8 12.8 105.3 14.3L94.5 42L83.7 14.3C83.1 12.7 81.5 11.6 79.7 11.6C77.4 11.6 75.5 13.5 75.5 15.9C75.5 16.5 75.7 17 75.8 17.5L88.4 48.4C89.4 50.9 91.8 52.5 94.6 52.5C97.3 52.5 99.7 50.8 100.7 48.4L113.3 17.6C113.5 17.1 113.6 16.5 113.6 15.9C113.5 13.5 111.6 11.6 109.3 11.6ZM136.8 18.7C139.6 18.7 141.9 19.5 144 21.3C144.7 21.9 145.6 22.2 146.6 22.2C148.7 22.2 150.5 20.5 150.5 18.3C150.5 17.1 149.9 16 149.1 15.3C146.1 12.7 142.1 11 136.5 11C124.4 11 115.9 19.8 115.9 31.9C115.9 44 124.4 52.9 136.5 52.9C142.1 52.9 146.2 51.2 149.1 48.6C149.9 47.9 150.5 46.8 150.5 45.6C150.5 43.5 148.8 41.7 146.5 41.7C145.6 41.7 144.7 42 144 42.6C141.9 44.3 139.6 45.2 136.8 45.2C129.5 45.2 124.7 39.7 124.7 31.9C124.7 24.1 129.5 18.7 136.8 18.7ZM162.8 11.6C160.4 11.6 158.4 13.6 158.4 16V48.1C158.4 50.5 160.4 52.5 162.7 52.5C165.1 52.5 167.1 50.5 167.1 48.1V15.9C167.1 13.5 165.1 11.6 162.8 11.6ZM194.6 45C193.9 45 193.4 45.2 192.5 45.2C190 45.2 188.7 43.2 188.7 40.5V19.7H193.5C195.6 19.7 197.3 18 197.3 15.9C197.3 13.8 195.6 12.1 193.5 12.1H188.7V4.99998C188.7 2.59998 186.7 0.599976 184.4 0.599976C182 0.599976 180 2.59998 180 4.99998V12H176.7C174.6 12 172.9 13.7 172.9 15.8C172.9 17.9 174.6 19.6 176.7 19.6H180V42.6C180 49.2 183.6 52.8 190.2 52.8C192.6 52.8 194.5 52.4 195.9 51.8C197.3 51.3 198.2 50.1 198.2 48.5C198.3 46.6 196.9 45 194.6 45ZM221.9 11.1C216.5 11.1 211.6 12.6 207.2 15.8C206.4 16.4 205.7 17.5 205.7 18.6C205.7 20.5 207.3 22.1 209.2 22.1C209.9 22.1 210.7 21.9 211.2 21.5C214.2 19.4 217.1 18.5 220.5 18.5C226 18.5 229.8 21.3 229.8 25.9V31.8C226.9 28.4 222.3 26.7 216.9 26.7C210.4 26.7 203 30.5 203 39.7C203 48.5 210.3 52.9 216.9 52.9C222.2 52.9 226.8 51 229.8 47.6V48C229.8 50.4 231.8 52.4 234.1 52.4C236.5 52.4 238.5 50.4 238.5 48V25.5C238.5 14.8 230.7 11.1 221.9 11.1ZM229.8 41.5C227.8 44.2 224.1 47 220.3 47C215.4 47 211.8 44.2 211.8 39.9C211.8 35.5 215.4 32.7 220.3 32.7C224.1 32.7 227.8 35.5 229.8 38.2V41.5Z" fill="black"/>
<path d="M48.2998 1.7002C55.9998 1.7002 62.2002 7.9 62.2002 15.5V48.4004C62.2 56.1002 55.9997 62.2998 48.2998 62.2998H15.4004C7.70054 62.2998 1.50024 56.1002 1.5 48.4004V15.5C1.5 7.9 7.70039 1.7002 15.4004 1.7002H48.2998ZM49.0996 24.9004C46.9996 23.4004 44 23.8004 42.5 25.9004L27.7002 45.4004C26.2004 47.5004 26.6003 50.5 28.7002 52L29.2002 52.4004C31.3001 53.9 34.2998 53.4999 35.7998 51.4004L50.5996 31.9004C52.1996 29.7004 51.6996 26.7998 49.5996 25.2998L49.0996 24.9004ZM21.2002 25.9004C19.7002 23.8004 16.6996 23.3004 14.5996 24.9004L14.0996 25.2998C11.9998 26.7999 11.4997 29.8005 13.0996 31.9004L19.9004 40.5L23.5996 45L26.7998 40.7998C28.4998 38.5998 29.1996 36.1996 27.5996 34.0996L21.2002 25.9004ZM31.7998 10.7002C28.3 10.7003 25.4006 13.5998 25.4004 17.0996C25.4004 20.5995 28.2999 23.4999 31.7998 23.5C35.2998 23.5 38.2002 20.5996 38.2002 17.0996C38.2 13.5998 35.2997 10.7002 31.7998 10.7002Z" fill="#0DDAF5"/>
</svg>
