<svg width="192" height="66" viewBox="0 0 192 66" fill="none" xmlns="http://www.w3.org/2000/svg">
<path d="M166.347 52.344C162.891 52.344 160.15 51.064 158.123 48.504C156.096 45.944 155.083 42.4987 155.083 38.168C155.083 34.0293 155.755 30.328 157.099 27.064C158.464 23.8 160.31 21.2293 162.635 19.352C164.96 17.4533 167.595 16.504 170.539 16.504C172.566 16.504 174.294 17.016 175.723 18.04C177.174 19.064 178.166 20.4933 178.699 22.328H181.259L178.571 25.304L182.251 4.53601H191.243L185.675 35.768C185.483 36.8347 185.344 37.6987 185.259 38.36C185.195 39 185.163 39.5653 185.163 40.056C185.163 41.8267 186.176 42.712 188.203 42.712H189.547L188.075 51.096C187.456 51.3307 186.827 51.512 186.187 51.64C185.568 51.768 184.896 51.832 184.171 51.832C182.102 51.832 180.491 51.2027 179.339 49.944C178.208 48.6853 177.643 46.9147 177.643 44.632C177.643 44.0133 177.696 43.3733 177.803 42.712C177.931 42.0293 178.134 41.176 178.411 40.152L179.979 43.512L177.419 43.16C176.374 46.1253 174.902 48.3973 173.003 49.976C171.126 51.5547 168.907 52.344 166.347 52.344ZM169.547 43.8C171.318 43.8 172.8 42.8507 173.995 40.952C175.19 39.032 176.139 36.1307 176.843 32.248L177.515 28.536C176.96 27.32 176.278 26.4347 175.467 25.88C174.678 25.304 173.707 25.016 172.555 25.016C170.998 25.016 169.611 25.5387 168.395 26.584C167.179 27.608 166.219 29.0267 165.515 30.84C164.811 32.632 164.459 34.6693 164.459 36.952C164.459 39.1493 164.896 40.8453 165.771 42.04C166.667 43.2133 167.926 43.8 169.547 43.8Z" fill="white"/>
<path d="M139.044 52.344C135.78 52.344 132.911 51.64 130.436 50.232C127.961 48.824 126.02 46.904 124.612 44.472C123.225 42.0187 122.532 39.224 122.532 36.088C122.532 33.4427 122.98 30.9467 123.876 28.6C124.772 26.232 126.073 24.1413 127.78 22.328C129.508 20.5147 131.599 19.096 134.052 18.072C136.505 17.0267 139.279 16.504 142.372 16.504C146.468 16.504 149.551 17.464 151.62 19.384C153.689 21.304 154.724 23.7467 154.724 26.712C154.724 29.4427 153.828 31.6293 152.036 33.272C150.244 34.9147 147.449 36.0987 143.652 36.824C139.876 37.528 134.98 37.88 128.964 37.88L128.484 32.28C132.345 32.1947 135.556 31.992 138.116 31.672C140.697 31.352 142.628 30.8507 143.908 30.168C145.209 29.4853 145.86 28.568 145.86 27.416C145.86 26.4987 145.519 25.7947 144.836 25.304C144.175 24.792 143.151 24.536 141.764 24.536C139.716 24.536 137.924 25.0587 136.388 26.104C134.873 27.1493 133.689 28.536 132.836 30.264C132.004 31.9707 131.588 33.8373 131.588 35.864C131.588 38.36 132.26 40.3013 133.604 41.688C134.948 43.0747 136.836 43.768 139.268 43.768C140.847 43.768 142.287 43.4693 143.588 42.872C144.911 42.2533 146.223 41.2613 147.524 39.896L152.804 46.584C150.905 48.5467 148.847 49.9973 146.628 50.936C144.431 51.8747 141.903 52.344 139.044 52.344Z" fill="white"/>
<path d="M89.749 51.256L95.125 20.664L98.037 24.792H87.925L89.173 17.592H103.861L102.165 27.16L100.245 25.944H102.837C106.037 19.6507 110.389 16.504 115.893 16.504C118.581 16.504 120.928 17.144 122.933 18.424L119.637 27.032C118.528 26.3493 117.472 25.8693 116.469 25.592C115.488 25.2933 114.357 25.144 113.077 25.144C110.005 25.144 107.466 26.4133 105.461 28.952C103.477 31.4693 102.016 35.3733 101.077 40.664L99.221 51.256H89.749ZM111.733 32.984L114.133 19.352L122.933 18.424L120.373 32.984H111.733Z" fill="white"/>
<path d="M54.558 51.256L62.622 5.43201H91.614L89.982 14.648H70.846L64.414 51.256H54.558ZM63.646 34.04L65.246 24.952H86.27L84.67 34.04H63.646Z" fill="white"/>
<path d="M50.151 65.344C46.3963 65.344 43.4203 64.3413 41.223 62.336C39.047 60.3093 37.959 57.5573 37.959 54.08C37.959 53.376 38.0016 52.5867 38.087 51.712C38.1723 50.8373 41.3216 36.8133 41.535 35.64L45.159 20.696L47.431 24.824H35.047L36.295 17.592H55.303L51.039 36.024C50.911 36.7493 48.815 47.3893 48.751 47.944C48.687 48.4773 47.655 51.9573 47.655 52.384C47.655 53.6213 47.9963 54.5813 48.679 55.264C49.3616 55.9467 50.3323 56.288 51.591 56.288C52.999 56.288 54.407 55.7867 55.815 54.784L59.559 62.368C56.807 64.352 53.671 65.344 50.151 65.344ZM51.263 12.384C49.5137 12.384 48.0203 11.7867 46.783 10.592C45.5456 9.376 44.927 7.904 44.927 6.176C44.927 4.40533 45.535 2.93333 46.751 1.76C47.967 0.586667 49.471 0 51.263 0C53.0977 0 54.6016 0.586667 55.775 1.76C56.9483 2.912 57.535 4.384 57.535 6.176C57.535 7.92534 56.9376 9.39734 55.743 10.592C54.5483 11.7867 53.055 12.384 51.263 12.384Z" fill="white"/>
<path d="M28.48 51.296C25.984 51.296 24.0213 50.5707 22.592 49.12C21.1627 47.6693 20.448 45.6853 20.448 43.168C20.448 42.336 20.512 41.504 20.64 40.672C20.7893 39.8187 21.0027 38.7947 21.28 37.6L22.784 31.392C23.0187 30.4747 23.1787 29.6747 23.264 28.992C23.3493 28.3093 23.392 27.68 23.392 27.104C23.392 26.0587 23.1467 25.2907 22.656 24.8C22.1867 24.288 21.4827 24.032 20.544 24.032C19.328 24.032 18.1867 24.48 17.12 25.376C16.0533 26.272 15.1253 27.5307 14.336 29.152C13.5467 30.7733 12.96 32.672 12.576 34.848L9.792 50.72H0L8.224 4H18.016L14.528 23.712L13.344 22.24H15.104C18.1333 18.0587 21.6427 15.968 25.632 15.968C27.9787 15.968 29.8133 16.6507 31.136 18.016C32.4587 19.36 33.12 21.2373 33.12 23.648C33.12 24.5013 33.056 25.408 32.928 26.368C32.8 27.3067 32.5973 28.352 32.32 29.504L30.56 36.928C30.3467 37.8027 30.1973 38.4427 30.112 38.848C30.048 39.232 30.016 39.5627 30.016 39.84C30.016 41.44 30.9867 42.24 32.928 42.24H34.304L32.832 50.528C32.1067 50.784 31.3813 50.976 30.656 51.104C29.952 51.232 29.2267 51.296 28.48 51.296Z" fill="white"/>
</svg>
